# Blender 4.5.3 LTS
# www.blender.org
mtllib semicross.mtl
o Grid
v 0.250000 -0.250000 -0.500000
v 0.250000 0.250000 -0.500000
v 0.187500 -0.125000 -0.500000
v 0.187500 -0.062500 -0.500000
v 0.187500 0.062500 -0.500000
v 0.187500 0.125000 -0.500000
v 0.250000 0.125000 -0.500000
v 0.250000 -0.125000 -0.500000
v 0.125000 -0.062500 -0.500000
v 0.125000 0.062500 -0.500000
v 0.250000 -0.250000 0.500000
v 0.250000 0.250000 0.500000
v 0.187500 -0.125000 0.500000
v 0.187500 -0.062500 0.500000
v 0.187500 0.062500 0.500000
v 0.187500 0.125000 0.500000
v 0.250000 0.125000 0.500000
v 0.250000 -0.125000 0.500000
v 0.125000 -0.062500 0.500000
v 0.125000 0.062500 0.500000
v -0.500000 -0.250000 -0.250000
v -0.250000 -0.250000 -0.250000
v -0.250000 -0.250000 -0.500000
v -0.500000 0.250000 -0.250000
v -0.250000 0.250000 -0.250000
v -0.250000 0.250000 -0.500000
v -0.187500 -0.125000 -0.500000
v -0.187500 -0.062500 -0.500000
v -0.187500 0.062500 -0.500000
v -0.187500 0.125000 -0.500000
v -0.250000 0.125000 -0.500000
v -0.250000 -0.125000 -0.500000
v -0.500000 -0.062500 -0.125000
v -0.500000 0.062500 -0.125000
v -0.125000 -0.062500 -0.500000
v -0.125000 0.062500 -0.500000
v -0.500000 -0.125000 -0.187500
v -0.500000 -0.062500 -0.187500
v -0.500000 0.062500 -0.187500
v -0.500000 0.125000 -0.187500
v -0.500000 -0.125000 -0.250000
v -0.500000 0.125000 -0.250000
v -0.250000 -0.125000 -0.250000
v -0.250000 0.125000 -0.250000
v -0.187500 -0.062500 -0.187500
v -0.187500 0.125000 -0.187500
v -0.187500 -0.125000 -0.187500
v -0.187500 0.062500 -0.187500
v -0.125000 -0.062500 -0.125000
v -0.125000 0.062500 -0.125000
v -0.500000 -0.250000 0.250000
v -0.250000 -0.250000 0.250000
v -0.250000 -0.250000 0.500000
v -0.500000 0.250000 0.250000
v -0.250000 0.250000 0.250000
v -0.250000 0.250000 0.500000
v -0.187500 -0.125000 0.500000
v -0.187500 -0.062500 0.500000
v -0.187500 0.062500 0.500000
v -0.187500 0.125000 0.500000
v -0.250000 0.125000 0.500000
v -0.250000 -0.125000 0.500000
v -0.500000 -0.062500 0.125000
v -0.500000 0.062500 0.125000
v -0.125000 -0.062500 0.500000
v -0.125000 0.062500 0.500000
v -0.500000 -0.125000 0.187500
v -0.500000 -0.062500 0.187500
v -0.500000 0.062500 0.187500
v -0.500000 0.125000 0.187500
v -0.500000 -0.125000 0.250000
v -0.500000 0.125000 0.250000
v -0.250000 -0.125000 0.250000
v -0.250000 0.125000 0.250000
v -0.187500 -0.062500 0.187500
v -0.187500 0.125000 0.187500
v -0.187500 -0.125000 0.187500
v -0.187500 0.062500 0.187500
v -0.125000 -0.062500 0.125000
v -0.125000 0.062500 0.125000
vn -1.0000 -0.0000 -0.0000
vn -0.0000 -0.0000 1.0000
vn -0.0000 1.0000 -0.0000
vn -0.0000 -0.0000 -1.0000
vn 1.0000 -0.0000 -0.0000
vn -0.0000 -1.0000 -0.0000
vt 0.750000 0.250000
vt 1.000000 0.250000
vt 0.750000 0.000000
vt 0.000000 0.000000
s 1
f 44/1/1 25/1/1 26/2/1 31/2/1
f 14/2/2 58/2/2 57/2/2 13/2/2
f 55/1/3 25/1/3 24/3/3 54/3/3
f 23/4/1 22/4/1 43/1/1 32/2/1
f 12/2/3 2/2/3 26/2/3 56/2/3
f 49/1/4 33/3/4 34/3/4 50/1/4
f 7/2/5 2/2/5 12/2/5 17/2/5
f 72/3/2 74/1/2 55/1/2 54/3/2
f 74/1/1 61/2/1 56/2/1 55/1/1
f 24/3/4 25/1/4 44/1/4 42/3/4
f 22/4/4 21/4/4 41/3/4 43/1/4
f 27/2/3 32/2/3 43/1/3 47/1/3
f 30/2/6 46/1/6 44/1/6 31/2/6
f 20/2/2 66/2/2 65/2/2 19/2/2
f 33/3/3 49/1/3 45/1/3 38/3/3
f 37/3/3 47/1/3 43/1/3 41/3/3
f 52/4/1 53/4/1 62/2/1 73/1/1
f 40/3/4 46/1/4 48/1/4 39/3/4
f 42/3/6 44/1/6 46/1/6 40/3/6
f 48/1/6 50/1/6 34/3/6 39/3/6
f 38/3/4 45/1/4 47/1/4 37/3/4
f 49/1/1 50/1/1 36/2/1 35/2/1
f 35/2/3 28/2/3 45/1/3 49/1/3
f 36/2/6 50/1/6 48/1/6 29/2/6
f 47/1/1 45/1/1 28/2/1 27/2/1
f 48/1/1 46/1/1 30/2/1 29/2/1
f 63/3/2 79/1/2 80/1/2 64/3/2
f 59/2/6 78/1/6 80/1/6 66/2/6
f 73/1/3 62/2/3 57/2/3 77/1/3
f 77/1/1 57/2/1 58/2/1 75/1/1
f 51/4/2 52/4/2 73/1/2 71/3/2
f 68/3/3 75/1/3 79/1/3 63/3/3
f 71/3/3 73/1/3 77/1/3 67/3/3
f 16/2/2 60/2/2 59/2/2 15/2/2
f 69/3/2 78/1/2 76/1/2 70/3/2
f 70/3/6 76/1/6 74/1/6 72/3/6
f 78/1/6 69/3/6 64/3/6 80/1/6
f 67/3/2 77/1/2 75/1/2 68/3/2
f 65/2/1 66/2/1 80/1/1 79/1/1
f 65/2/3 79/1/3 75/1/3 58/2/3
f 61/2/6 74/1/6 76/1/6 60/2/6
f 78/1/1 59/2/1 60/2/1 76/1/1
f 22/4/6 52/4/6 51/4/6 21/4/6
f 17/2/2 12/2/2 56/2/2 61/2/2
f 11/4/2 18/2/2 62/2/2 53/4/2
f 41/3/1 21/4/1 51/4/1 71/3/1
f 38/3/1 37/3/1 67/3/1 68/3/1
f 34/3/1 33/3/1 63/3/1 64/3/1
f 40/3/1 39/3/1 69/3/1 70/3/1
f 24/3/1 42/3/1 72/3/1 54/3/1
f 7/2/4 31/2/4 26/2/4 2/2/4
f 6/2/4 5/2/4 29/2/4 30/2/4
f 10/2/4 9/2/4 35/2/4 36/2/4
f 4/2/4 3/2/4 27/2/4 28/2/4
f 1/4/4 23/4/4 32/2/4 8/2/4
f 7/2/6 17/2/6 16/4/6 6/4/6
f 11/4/6 53/4/6 23/4/6 1/4/6
f 1/4/5 8/2/5 18/2/5 11/4/5
f 8/2/3 3/4/3 13/4/3 18/2/3
f 4/2/5 14/2/5 13/2/5 3/4/5
f 4/2/3 9/4/3 19/4/3 14/2/3
f 10/2/5 20/2/5 19/2/5 9/4/5
f 5/4/6 15/4/6 20/2/6 10/2/6
f 6/4/5 16/4/5 15/2/5 5/4/5
